<svg xmlns="http://www.w3.org/2000/svg" viewBox="0 0 1200 800"><rect width="1200" height="800" fill="#d9b77f"/><ellipse cx="600" cy="470" rx="405" ry="205" fill="#8c603c"/><g fill="#f4e8d0" stroke="#c8a77b" stroke-width="6"><path d="M350 450q75-160 150 0q-75 70-150 0"/><path d="M510 390q80-165 160 0q-80 75-160 0"/><path d="M690 460q75-160 150 0q-75 70-150 0"/></g><g stroke="#c8a77b" stroke-width="5"><path d="M375 420l22 25 25-35 25 35 26-25m65-60l25 28 27-38 27 38 26-28m22 70l25 28 25-36 25 36 25-28"/></g><text x="70" y="105" fill="#60452f" font-family="sans-serif" font-size="54">HANDMADE JIAOZI</text></svg>
